<svg width="15" height="15" viewBox="0 0 15 15" fill="none" xmlns="http://www.w3.org/2000/svg">
<path fill-rule="evenodd" clip-rule="evenodd" d="M7.49987 1C3.91567 1 1 3.9159 1 7.5C1 11.0841 3.91567 14 7.49987 14C11.0841 14 14 11.0841 14 7.5C14 3.9159 11.0841 1 7.49987 1ZM7.49987 13.1475C4.38585 13.1475 1.85247 10.614 1.85247 7.5C1.85247 4.38595 4.38582 1.85251 7.49987 1.85251C10.6139 1.85251 13.1474 4.38598 13.1474 7.5C13.1475 10.614 10.6139 13.1475 7.49987 13.1475ZM6.02781 8.85799L9.29151 5.13861C9.45345 4.9538 9.71627 4.9538 9.87836 5.13857C10.0405 5.32323 10.0405 5.6228 9.87836 5.80746L6.32231 9.86017L6.32146 9.86143C6.24045 9.95384 6.13399 10 6.02781 10C5.92164 10 5.81547 9.95383 5.73442 9.86158L4.12164 8.02381C3.95945 7.83904 3.95945 7.53969 4.12164 7.35485C4.28376 7.17008 4.54639 7.17019 4.70852 7.35474L6.02781 8.85799Z" fill="#53B43B"/>
<path d="M13.1474 7.5L12.8974 7.5L12.8974 7.5L13.1474 7.5ZM9.29151 5.13861L9.47943 5.3035L9.47954 5.30337L9.29151 5.13861ZM6.02781 8.85799L5.83992 9.0229L6.02783 9.23702L6.21573 9.02288L6.02781 8.85799ZM9.87836 5.13857L9.69043 5.30344L9.69052 5.30355L9.87836 5.13857ZM9.87836 5.80746L9.69052 5.64248L9.69044 5.64257L9.87836 5.80746ZM6.32231 9.86017L6.1344 9.69528L6.12406 9.70707L6.11527 9.72006L6.32231 9.86017ZM6.32146 9.86143L6.50944 10.0262L6.51974 10.0145L6.5285 10.0015L6.32146 9.86143ZM5.73442 9.86158L5.54652 10.0265L5.5466 10.0266L5.73442 9.86158ZM4.12164 8.02381L4.30954 7.85891L4.30952 7.85889L4.12164 8.02381ZM4.12164 7.35485L3.93372 7.18997L3.93372 7.18997L4.12164 7.35485ZM4.70852 7.35474L4.89642 7.18984L4.89634 7.18975L4.70852 7.35474ZM1.25 7.5C1.25 4.05396 4.05375 1.25 7.49987 1.25V0.75C3.77759 0.75 0.75 3.77784 0.75 7.5H1.25ZM7.49987 13.75C4.05375 13.75 1.25 10.946 1.25 7.5H0.75C0.75 11.2222 3.77759 14.25 7.49987 14.25V13.75ZM13.75 7.5C13.75 10.946 10.946 13.75 7.49987 13.75V14.25C11.2221 14.25 14.25 11.2222 14.25 7.5H13.75ZM7.49987 1.25C10.946 1.25 13.75 4.05398 13.75 7.5H14.25C14.25 3.77782 11.2221 0.75 7.49987 0.75V1.25ZM1.60247 7.5C1.60247 10.7521 4.24777 13.3975 7.49987 13.3975V12.8975C4.52393 12.8975 2.10247 10.476 2.10247 7.5H1.60247ZM7.49987 1.60251C4.24774 1.60251 1.60247 4.24788 1.60247 7.5H2.10247C2.10247 4.52401 4.52389 2.10251 7.49987 2.10251V1.60251ZM13.3974 7.5C13.3974 4.24791 10.752 1.60251 7.49987 1.60251V2.10251C10.4759 2.10251 12.8974 4.52405 12.8974 7.5H13.3974ZM7.49987 13.3975C10.752 13.3975 13.3975 10.7521 13.3974 7.5L12.8974 7.5C12.8975 10.4759 10.4758 12.8975 7.49987 12.8975V13.3975ZM9.1036 4.97372L5.8399 8.6931L6.21573 9.02288L9.47943 5.3035L9.1036 4.97372ZM10.0663 4.9737C9.80467 4.67548 9.36505 4.67534 9.10349 4.97385L9.47954 5.30337C9.54184 5.23227 9.62787 5.23213 9.69043 5.30344L10.0663 4.9737ZM10.0662 5.97244C10.3113 5.69341 10.3113 5.25262 10.0662 4.9736L9.69052 5.30355C9.76983 5.39384 9.76983 5.55219 9.69052 5.64248L10.0662 5.97244ZM6.51023 10.0251L10.0663 5.97235L9.69044 5.64257L6.1344 9.69528L6.51023 10.0251ZM6.5285 10.0015L6.52936 10.0003L6.11527 9.72006L6.11441 9.72132L6.5285 10.0015ZM6.02781 10.25C6.20856 10.25 6.38267 10.1708 6.50944 10.0262L6.13348 9.69662C6.09822 9.73684 6.05942 9.75 6.02781 9.75V10.25ZM5.5466 10.0266C5.67322 10.1707 5.8469 10.25 6.02781 10.25V9.75C5.99638 9.75 5.95772 9.73696 5.92224 9.69658L5.5466 10.0266ZM3.93374 8.18871L5.54652 10.0265L5.92233 9.69668L4.30954 7.85891L3.93374 8.18871ZM3.93372 7.18997C3.68878 7.46913 3.68873 7.9096 3.93376 8.18874L4.30952 7.85889C4.23017 7.76849 4.23013 7.61026 4.30956 7.51974L3.93372 7.18997ZM4.89634 7.18975C4.63471 6.89192 4.19548 6.89165 3.93372 7.18997L4.30956 7.51974C4.37204 7.44852 4.45808 7.44846 4.5207 7.51974L4.89634 7.18975ZM6.21571 8.69309L4.89642 7.18984L4.52062 7.51965L5.83992 9.0229L6.21571 8.69309Z" fill="#53B43B"/>
</svg>
